{
 "cells": [
  {
   "cell_type": "markdown",
   "metadata": {},
   "source": [
    "# Translation of Matlab Code\n",
    "\n",
    "Does:\n",
    "- run GCC-PHAT on each pairing to get a phase angle\n",
    "- convert phase angle to geometric angle using geometry\n",
    "\n",
    "Does not:\n",
    "- Apply differential smoothing to phase angles\n",
    "- Provide an alternative algo. for GCC-PHAT (XC)\n",
    "- Use a leaky filter on geometric angles\n"
   ]
  },
  {
   "cell_type": "code",
   "execution_count": 17,
   "metadata": {},
   "outputs": [],
   "source": [
    "# --- IMPORTS ---\n",
    "\n",
    "from pathlib import Path\n",
    "import pandas as pd\n",
    "\n",
    "# For GCC_PHAT calc\n",
    "import numpy as np\n",
    "import matplotlib.pyplot as plt\n",
    "from scipy.fftpack import rfft, irfft, fftfreq, fft, ifft\n",
    "from scipy.signal.windows import hann\n",
    "import math\n",
    "\n",
    "from itertools import combinations\n",
    "from matplotlib import animation\n",
    "\n",
    "import subprocess\n",
    "import shlex\n",
    "import glob\n",
    "\n",
    "from IPython.display import Video\n",
    "import cProfile\n",
    "import pstats"
   ]
  },
  {
   "cell_type": "code",
   "execution_count": 18,
   "metadata": {},
   "outputs": [],
   "source": [
    "# --- An Apache-2.0 Licensed GCC-PHAT algorithm ---\n",
    "\n",
    "\"\"\"\n",
    " Estimate time delay using GCC-PHAT \n",
    " Copyright (c) 2017 Yihui Xiong\n",
    "\n",
    " Licensed under the Apache License, Version 2.0 (the \"License\");\n",
    " you may not use this file except in compliance with the License.\n",
    " You may obtain a copy of the License at\n",
    "\n",
    "     http://www.apache.org/licenses/LICENSE-2.0\n",
    "\n",
    " Unless required by applicable law or agreed to in writing, software\n",
    " distributed under the License is distributed on an \"AS IS\" BASIS,\n",
    " WITHOUT WARRANTIES OR CONDITIONS OF ANY KIND, either express or implied.\n",
    " See the License for the specific language governing permissions and\n",
    " limitations under the License.\n",
    "\"\"\"\n",
    "\n",
    "import numpy as np\n",
    "\n",
    "\n",
    "def gcc_phat(sig, refsig, fs=1, max_tau=None, interp=16):\n",
    "    '''\n",
    "    This function computes the offset between the signal sig and the reference signal refsig\n",
    "    using the Generalized Cross Correlation - Phase Transform (GCC-PHAT)method.\n",
    "    '''\n",
    "    \n",
    "    # make sure the length for the FFT is larger or equal than len(sig) + len(refsig)\n",
    "    n = sig.shape[0] + refsig.shape[0]\n",
    "\n",
    "    # Generalized Cross Correlation Phase Transform\n",
    "    SIG = np.fft.rfft(sig, n=n)\n",
    "    REFSIG = np.fft.rfft(refsig, n=n)\n",
    "    R = SIG * np.conj(REFSIG)\n",
    "\n",
    "    cc = np.fft.irfft(R / np.abs(R), n=(interp * n))\n",
    "\n",
    "    max_shift = int(interp * n / 2)\n",
    "    if max_tau:\n",
    "        max_shift = np.minimum(int(interp * fs * max_tau), max_shift)\n",
    "\n",
    "    cc = np.concatenate((cc[-max_shift:], cc[:max_shift+1]))\n",
    "\n",
    "    # find max cross correlation index\n",
    "    shift = np.argmax(np.abs(cc)) - max_shift\n",
    "\n",
    "    tau = shift / float(interp * fs)\n",
    "    \n",
    "    return tau, cc"
   ]
  },
  {
   "cell_type": "code",
   "execution_count": 19,
   "metadata": {},
   "outputs": [],
   "source": [
    "def run_test(test_0):\n",
    "    \n",
    "    # NOTE: a \"frame\" is the smallest unit of sampled time. (aka the data is a timeseries indexed by frame count).\n",
    "    # For quick testing iteration, shrink this (aka use only the first fraction of data).\n",
    "    N_TOTAL_FRAMES = 480000\n",
    "    \n",
    "    # a \"chunk\" is a group of frames considered at a time for correlation / filtering.\n",
    "    N_SAMPLES_PER_CHUNK = 480\n",
    "    \n",
    "    # Chunks needn't be discrete; they can overlap. If N_ADVANCE == N_F_PER_CHUNK then they are discrete.\n",
    "    N_ADVANCE_PER_CHUNK = 480\n",
    "    \n",
    "    # Frequency is always the same for our tests.\n",
    "    FREQUENCY_HZ = 48000\n",
    "    \n",
    "    \"\"\"Load a test from a given test folder, and compute the phase angles / true angles over time. Animate.\"\"\"\n",
    "    \n",
    "    print(f\"Running for test {test_0}...\")\n",
    "    \n",
    "    pressure_data = pd.read_csv(test_0 / \"pressures.csv\", index_col=0, header=0)\n",
    "    # display(pressure_data)\n",
    "    \n",
    "    positions = pd.read_csv(test_0 / \"positions.csv\", index_col=0, header=0)\n",
    "    # display(positions)\n",
    "\n",
    "    def n_frames_to_ms(n_frames):\n",
    "        \"\"\"Convert from some amount of frames to time in milliseconds\"\"\"\n",
    "        return n_frames/FREQUENCY_HZ*1000\n",
    "    \n",
    "    mic_pairs = list(combinations(range(positions.shape[0]), 2))\n",
    "    \n",
    "    all_pairwise_delays = []\n",
    "    all_delays_flattened = []\n",
    "    all_pairwise_angles = []\n",
    "    \n",
    "    # We process frequency timeseries in smaller chunks to get one estimated DOA angle per chunk of time.\n",
    "    n_steps = 0\n",
    "    for frame_idx in range(0, N_TOTAL_FRAMES - N_SAMPLES_PER_CHUNK, N_ADVANCE_PER_CHUNK):\n",
    "        n_steps += 1\n",
    "        \n",
    "        # Consider this chunk.\n",
    "        this_chunk_pressure_data = pressure_data.iloc[frame_idx:frame_idx+N_SAMPLES_PER_CHUNK]\n",
    "        this_chunk_delays = []\n",
    "        this_chunk_pairwise_delays = []\n",
    "        this_chunk_pairwise_angles = []\n",
    "        \n",
    "        # for windowing\n",
    "        window = hann(N_SAMPLES_PER_CHUNK)\n",
    "        \n",
    "        # Here's where we do the heavy lifting in computing angles for each pairing!\n",
    "        for pair_idx, (mic1_idx, mic2_idx) in enumerate(mic_pairs):\n",
    "            mic1_pressure_header, mic2_pressure_header = this_chunk_pressure_data.columns[mic1_idx], this_chunk_pressure_data.columns[mic2_idx]\n",
    "\n",
    "            s1, s2 = this_chunk_pressure_data[mic1_pressure_header], this_chunk_pressure_data[mic2_pressure_header]\n",
    "            \n",
    "            # apply windowing to these frequencies\n",
    "            s1, s2 = window * s1, window * s2\n",
    "            \n",
    "            # ----- COMPUTE PHASE ANGLE BETWEEN THIS PAIR -------\n",
    "            delay, _ = gcc_phat(s1, s2, FREQUENCY_HZ)\n",
    "            \n",
    "            # Prep for geometric angle calc.\n",
    "            mic1_pos = positions.iloc[mic1_idx]\n",
    "            mic2_pos = positions.iloc[mic2_idx]\n",
    "            m1x, m1y = tuple(mic1_pos)\n",
    "            m2x, m2y = tuple(mic2_pos)\n",
    "            \n",
    "            \n",
    "            # ---- PHASE ANGLE TO GEOMETRIC ANGLE CALCULATION ----\n",
    "            \n",
    "            # This was the MatLab implementation I based this off of. But I also\n",
    "            # kind of derived the setup from scratch.\n",
    "            \n",
    "            # [d,a]=distang(micpos(i,:),frequency_hz; %Calculate distance and angle between mics\n",
    "            # ra=(1:360)*pi/180-a; %Create angle vector, rotate based on mic position\n",
    "            # ds=d*cos(ra)*fs/343; %Convert to sample delay\n",
    "            # angularIndex(:,n)=round(ds)+bufferSize/2 +1; % Shift to put zero index in the middle\n",
    "\n",
    "\n",
    "            dist, pair_edge_angle = np.sqrt((m1x-m2x)**2 + (m1y-m2y)**2), math.atan2(m2x-m1x, m2y-m1y)\n",
    "            speed_times_time = 343*delay/dist\n",
    "            ang_relative_to_mic_edge = np.arccos(speed_times_time if np.abs(speed_times_time) <= 1 else 1 * np.sign(speed_times_time))\n",
    "            geometric_angles = (ang_relative_to_mic_edge - pair_edge_angle) % (2*np.pi), (-ang_relative_to_mic_edge - pair_edge_angle)  % (2*np.pi)\n",
    "            \n",
    "            # ------------------------------------------------------\n",
    "            \n",
    "            this_chunk_delays.append(delay)\n",
    "            this_chunk_pairwise_delays.append(delay)\n",
    "            this_chunk_pairwise_angles.append(geometric_angles)\n",
    "                    \n",
    "        all_pairwise_delays.append(this_chunk_pairwise_delays)\n",
    "        all_delays_flattened += this_chunk_delays\n",
    "        all_pairwise_angles.append(this_chunk_pairwise_angles)\n",
    "    \n",
    "    # For tuning the animation\n",
    "    ANIM_LEN_SEC = 10 # 10\n",
    "\n",
    "    # For the angle est. line in the animation\n",
    "    LINE_LEN = 0.15\n",
    "    \n",
    "    ANGLE_LINE_ALPHA = 0.1\n",
    "    ANGLE_LINE_LW = 3\n",
    "    \n",
    "    EXAGGERATION = 2.\n",
    "    \n",
    "    MIC_EDGE_COLOR = (1, 0, 0)\n",
    "    MIC_EDGE_OPACITY = 0.6\n",
    "    ANGLE_LINE_COLOR = (0, 1, 0)\n",
    "\n",
    "    # Move the angle drawing right so it doesn't overlap\n",
    "    # the red lines as much (so we don't misinterpret dark overlap as a high-conf angle)\n",
    "    ANGLE_LINE_X_OFFS = 0.02\n",
    "    \n",
    "    # Don't compute animation for every frame; it's inneficient. Only do every nth.\n",
    "    ANIM_FRAME_ADVANCE = 5\n",
    "    \n",
    "    # Create an animation \n",
    "    fig, ax = plt.subplots()\n",
    "    ax.set_title(f\"{test_0}\")\n",
    "    ax.set(title=f\"{test_0}\", xlim=(-0.22, 0.16), ylim=(-0.16, 0.16))\n",
    "    t_text = ax.text(0.007, 0.03, \"t\")\n",
    "        \n",
    "    # Setup the orignal line color and positions of the animation.\n",
    "    # Use the last chunk done (bound to \"this_chunk_pressure_data\") to grab headers.\n",
    "    lines = []\n",
    "\n",
    "    for mic1_idx, mic2_idx in mic_pairs:\n",
    "        mic1_pos = positions.iloc[mic1_idx]\n",
    "        mic2_pos = positions.iloc[mic2_idx]\n",
    "        m1x, m1y = tuple(mic1_pos)\n",
    "        m2x, m2y = tuple(mic2_pos)\n",
    "        \n",
    "        # angle, symmetric_angle = this_chunk_pairwise_angles[pair_idx]\n",
    "\n",
    "        \n",
    "        # move edges right by factor of line length to remove overlaps\n",
    "        xo = np.sqrt((m1x - m2x)**2 + (m1y-m2y)**2) * 0.03\n",
    "        \n",
    "        # Graph the mic edge\n",
    "        mic_edge_line, = ax.plot([m1x+xo, m2x+xo], [m1y, m2y], c=MIC_EDGE_COLOR)\n",
    "        \n",
    "\n",
    "        \n",
    "        # Graph possible angle and its symmetry\n",
    "        angle_line, = ax.plot(0, 0, c=ANGLE_LINE_COLOR, lw=ANGLE_LINE_LW, alpha=ANGLE_LINE_ALPHA)\n",
    "        angle_symmetric_line, = ax.plot(0, 0, c=ANGLE_LINE_COLOR, lw=ANGLE_LINE_LW, alpha=ANGLE_LINE_ALPHA)\n",
    "        lines.append((mic_edge_line, angle_line, angle_symmetric_line))\n",
    "\n",
    "    max_delay, min_delay = max(all_delays_flattened), min(all_delays_flattened)\n",
    "\n",
    "    def update(chunk_idx):\n",
    "        \"\"\"For our animation. For each chunk create one animation frame, in which we update the line colors.\"\"\"\n",
    "\n",
    "        chunk_idx *= ANIM_FRAME_ADVANCE\n",
    "\n",
    "        frame_idx = chunk_idx*N_ADVANCE_PER_CHUNK\n",
    "\n",
    "        this_chunk_pairwise_delays = all_pairwise_delays[chunk_idx]\n",
    "        this_chunk_pairwise_angles = all_pairwise_angles[chunk_idx]\n",
    "        \n",
    "        \n",
    "        # For each frame, we need to recolor each edge based on the delays of this chunk.\n",
    "        for pair_idx, _ in enumerate(mic_pairs):\n",
    "            delay = this_chunk_pairwise_delays[pair_idx]\n",
    "            \n",
    "            # Since all time delays are relatively close to eachother,\n",
    "            # scale the color by first normalizing then putting through an exponential.\n",
    "            # Makes higher values *much* more intense.\n",
    "            alpha = 1 if max_delay == min_delay else np.exp(EXAGGERATION*(delay - min_delay) / (max_delay - min_delay)) / (np.exp(EXAGGERATION))\n",
    "\n",
    "\n",
    "            mic_edge_line, angle_line, angle_symmetric_line = lines[pair_idx]\n",
    "\n",
    "            mic_edge_line.set_alpha(alpha*MIC_EDGE_OPACITY)\n",
    "            mic_edge_line.set_color(MIC_EDGE_COLOR)\n",
    "            \n",
    "\n",
    "            \n",
    "            angle, symmetric_angle = this_chunk_pairwise_angles[pair_idx]\n",
    "            angle_line.set_xdata([ANGLE_LINE_X_OFFS, ANGLE_LINE_X_OFFS + LINE_LEN*np.cos(angle)])\n",
    "            angle_line.set_ydata([0, LINE_LEN*np.sin(angle)])\n",
    "            angle_symmetric_line.set_xdata([ANGLE_LINE_X_OFFS, ANGLE_LINE_X_OFFS + LINE_LEN*np.cos(symmetric_angle)])\n",
    "            angle_symmetric_line.set_ydata([0, LINE_LEN*np.sin(symmetric_angle)])\n",
    "            \n",
    "        t_text.set_text((\n",
    "            f\"Step # {chunk_idx}\\n\"\n",
    "            f\"t={n_frames_to_ms(frame_idx):.2f}ms\\n\"\n",
    "            f\"Frame # {frame_idx}\\n\"\n",
    "            f\"Chunk size:\\n  {N_SAMPLES_PER_CHUNK} frames ({n_frames_to_ms(N_SAMPLES_PER_CHUNK):.2f}ms)\\n\"\n",
    "            f\"frame adv. per chunk:\\n  {N_ADVANCE_PER_CHUNK} frames ({n_frames_to_ms(N_ADVANCE_PER_CHUNK):.2f}ms)\\n\"\n",
    "            \"Darker=longer delay\"\n",
    "        ))\n",
    "            \n",
    "        return *lines, t_text,\n",
    "    \n",
    "    # Save the animation.\n",
    "    ani = animation.FuncAnimation(fig, update, frames=n_steps // ANIM_FRAME_ADVANCE, interval=ANIM_LEN_SEC * 1000 // n_steps * ANIM_FRAME_ADVANCE)\n",
    "    test_0_same_dir= test_0.relative_to(*test_0.parts[:1])\n",
    "    \n",
    "    outname = f\"{test_0_same_dir}_anim.mp4\"\n",
    "    \n",
    "    ani.save(outname)\n",
    "    plt.close()\n",
    "    \n",
    "    return outname\n",
    "    \n"
   ]
  },
  {
   "cell_type": "code",
   "execution_count": 20,
   "metadata": {},
   "outputs": [],
   "source": [
    "def run_all_test_anims(data_root=\"Data\", printstats=False):\n",
    "    \"\"\"Run and animate each timeseries test, with angles computed. Outputs saved alongside this file.\"\"\"\n",
    "    test_dirs = [f for f in Path(data_root).iterdir() if f.is_dir() ]\n",
    "\n",
    "    outnames = []\n",
    "    \n",
    "    with cProfile.Profile() as pr:\n",
    "        for test in test_dirs:  \n",
    "            outname = run_test(test)\n",
    "            outnames.append(outname)\n",
    "        if printstats:\n",
    "            pstats.Stats(pr).strip_dirs().sort_stats(pstats.SortKey.CUMULATIVE).print_stats()\n",
    "    return outnames\n",
    "    "
   ]
  },
  {
   "cell_type": "code",
   "execution_count": 23,
   "metadata": {},
   "outputs": [],
   "source": [
    "def combine_test_videos(output_video_name, anim_filenames):\n",
    "    \"\"\"Create a unified video that combines the test videos.\n",
    "    \n",
    "    This function suppresses errors during running ffmpeg, so\n",
    "    if it's not working, make sure you have ffmpeg installed on \n",
    "    your computer.\n",
    "    \"\"\"\n",
    "    print(f\"Combining into {anim_filenames}\")\n",
    "    files = anim_filenames\n",
    "    \n",
    "    # Grab singular test video files in this directory.\n",
    "    # for f in glob.glob(\"test_*.mp4\", root_dir=\".\"):\n",
    "    #     files.append(f)\n",
    "    \n",
    "    # Create a grid by getting the n. rows needed, and duplicating the last video until it's a rectangle\n",
    "    n_rows = len(anim_filenames) // 3\n",
    "    n_leftover_spots = len(anim_filenames) % 3\n",
    "    files += [files[-1] for _ in range(n_leftover_spots)]\n",
    "    i = 0\n",
    "    \n",
    "    # at this point, there are enough videos in files to be rectangular.\n",
    "    n_rows = len(files) // 3\n",
    "    \n",
    "    # Now we construct an ffmpeg command to combine the videos into a 3-column grid.\n",
    "    inclusion_rows = \" \".join([f\"-i {files[3*r]} -i {files[3*r+1]} -i {files[3*r+2]}\" for r in range(n_rows)])\n",
    "    filter_complex_rows = \"; \".join([f\"[{3*r}:v][{3*r+1}:v][{3*r+2}:v]hstack=inputs=3[t{r}]\" for r in range(n_rows)])\n",
    "    vstack_cmd = \"\".join([f\"[t{r}]\" for r in range(n_rows)]) + f\"vstack=inputs={n_rows}[v]\"\n",
    "    \n",
    "    # Only combine if all the test files are produced correctly.    \n",
    "    if len(files) >= 5:\n",
    "        subprocess.run(shlex.split(f\"\"\"ffmpeg -y \\\n",
    "            {inclusion_rows} \\\n",
    "            -filter_complex \\\n",
    "            \\\"{filter_complex_rows}; {vstack_cmd}\\\" \\\n",
    "            -map \"[v]\" \\\n",
    "            {output_video_name}\n",
    "        \"\"\"),\n",
    "            # stdout = subprocess.DEVNULL,\n",
    "            # stderr = subprocess.DEVNULL\n",
    "        )\n",
    "\n",
    "        \n"
   ]
  },
  {
   "cell_type": "code",
   "execution_count": 24,
   "metadata": {},
   "outputs": [
    {
     "name": "stdout",
     "output_type": "stream",
     "text": [
      "Combining into ['test_01_white_noise_0_fwd_anim.mp4', 'test_02_white_noise_45_left_anim.mp4', 'test_03_white_noise_90_left_anim.mp4', 'test_04_engine_noise_no_talking_anim.mp4', 'test_06_engine_noise_talking_anim.mp4']\n"
     ]
    },
    {
     "name": "stderr",
     "output_type": "stream",
     "text": [
      "ffmpeg version 4.2.7-0ubuntu0.1 Copyright (c) 2000-2022 the FFmpeg developers\n",
      "  built with gcc 9 (Ubuntu 9.4.0-1ubuntu1~20.04.1)\n",
      "  configuration: --prefix=/usr --extra-version=0ubuntu0.1 --toolchain=hardened --libdir=/usr/lib/x86_64-linux-gnu --incdir=/usr/include/x86_64-linux-gnu --arch=amd64 --enable-gpl --disable-stripping --enable-avresample --disable-filter=resample --enable-avisynth --enable-gnutls --enable-ladspa --enable-libaom --enable-libass --enable-libbluray --enable-libbs2b --enable-libcaca --enable-libcdio --enable-libcodec2 --enable-libflite --enable-libfontconfig --enable-libfreetype --enable-libfribidi --enable-libgme --enable-libgsm --enable-libjack --enable-libmp3lame --enable-libmysofa --enable-libopenjpeg --enable-libopenmpt --enable-libopus --enable-libpulse --enable-librsvg --enable-librubberband --enable-libshine --enable-libsnappy --enable-libsoxr --enable-libspeex --enable-libssh --enable-libtheora --enable-libtwolame --enable-libvidstab --enable-libvorbis --enable-libvpx --enable-libwavpack --enable-libwebp --enable-libx265 --enable-libxml2 --enable-libxvid --enable-libzmq --enable-libzvbi --enable-lv2 --enable-omx --enable-openal --enable-opencl --enable-opengl --enable-sdl2 --enable-libdc1394 --enable-libdrm --enable-libiec61883 --enable-nvenc --enable-chromaprint --enable-frei0r --enable-libx264 --enable-shared\n",
      "  libavutil      56. 31.100 / 56. 31.100\n",
      "  libavcodec     58. 54.100 / 58. 54.100\n",
      "  libavformat    58. 29.100 / 58. 29.100\n",
      "  libavdevice    58.  8.100 / 58.  8.100\n",
      "  libavfilter     7. 57.100 /  7. 57.100\n",
      "  libavresample   4.  0.  0 /  4.  0.  0\n",
      "  libswscale      5.  5.100 /  5.  5.100\n",
      "  libswresample   3.  5.100 /  3.  5.100\n",
      "  libpostproc    55.  5.100 / 55.  5.100\n",
      "Input #0, mov,mp4,m4a,3gp,3g2,mj2, from 'test_01_white_noise_0_fwd_anim.mp4':\n",
      "  Metadata:\n",
      "    major_brand     : isom\n",
      "    minor_version   : 512\n",
      "    compatible_brands: isomiso2avc1mp41\n",
      "    encoder         : Lavf58.29.100\n",
      "  Duration: 00:00:09.95, start: 0.000000, bitrate: 123 kb/s\n",
      "    Stream #0:0(und): Video: h264 (High) (avc1 / 0x31637661), yuv420p, 640x480, 121 kb/s, 20 fps, 20 tbr, 10240 tbn, 40 tbc (default)\n",
      "    Metadata:\n",
      "      handler_name    : VideoHandler\n",
      "Input #1, mov,mp4,m4a,3gp,3g2,mj2, from 'test_02_white_noise_45_left_anim.mp4':\n",
      "  Metadata:\n",
      "    major_brand     : isom\n",
      "    minor_version   : 512\n",
      "    compatible_brands: isomiso2avc1mp41\n",
      "    encoder         : Lavf58.29.100\n",
      "  Duration: 00:00:09.95, start: 0.000000, bitrate: 113 kb/s\n",
      "    Stream #1:0(und): Video: h264 (High) (avc1 / 0x31637661), yuv420p, 640x480, 111 kb/s, 20 fps, 20 tbr, 10240 tbn, 40 tbc (default)\n",
      "    Metadata:\n",
      "      handler_name    : VideoHandler\n",
      "Input #2, mov,mp4,m4a,3gp,3g2,mj2, from 'test_03_white_noise_90_left_anim.mp4':\n",
      "  Metadata:\n",
      "    major_brand     : isom\n",
      "    minor_version   : 512\n",
      "    compatible_brands: isomiso2avc1mp41\n",
      "    encoder         : Lavf58.29.100\n",
      "  Duration: 00:00:09.95, start: 0.000000, bitrate: 189 kb/s\n",
      "    Stream #2:0(und): Video: h264 (High) (avc1 / 0x31637661), yuv420p, 640x480, 186 kb/s, 20 fps, 20 tbr, 10240 tbn, 40 tbc (default)\n",
      "    Metadata:\n",
      "      handler_name    : VideoHandler\n",
      "Input #3, mov,mp4,m4a,3gp,3g2,mj2, from 'test_04_engine_noise_no_talking_anim.mp4':\n",
      "  Metadata:\n",
      "    major_brand     : isom\n",
      "    minor_version   : 512\n",
      "    compatible_brands: isomiso2avc1mp41\n",
      "    encoder         : Lavf58.29.100\n",
      "  Duration: 00:00:09.95, start: 0.000000, bitrate: 515 kb/s\n",
      "    Stream #3:0(und): Video: h264 (High) (avc1 / 0x31637661), yuv420p, 640x480, 512 kb/s, 20 fps, 20 tbr, 10240 tbn, 40 tbc (default)\n",
      "    Metadata:\n",
      "      handler_name    : VideoHandler\n",
      "Input #4, mov,mp4,m4a,3gp,3g2,mj2, from 'test_06_engine_noise_talking_anim.mp4':\n",
      "  Metadata:\n",
      "    major_brand     : isom\n",
      "    minor_version   : 512\n",
      "    compatible_brands: isomiso2avc1mp41\n",
      "    encoder         : Lavf58.29.100\n",
      "  Duration: 00:00:09.95, start: 0.000000, bitrate: 448 kb/s\n",
      "    Stream #4:0(und): Video: h264 (High) (avc1 / 0x31637661), yuv420p, 640x480, 445 kb/s, 20 fps, 20 tbr, 10240 tbn, 40 tbc (default)\n",
      "    Metadata:\n",
      "      handler_name    : VideoHandler\n",
      "Input #5, mov,mp4,m4a,3gp,3g2,mj2, from 'test_06_engine_noise_talking_anim.mp4':\n",
      "  Metadata:\n",
      "    major_brand     : isom\n",
      "    minor_version   : 512\n",
      "    compatible_brands: isomiso2avc1mp41\n",
      "    encoder         : Lavf58.29.100\n",
      "  Duration: 00:00:09.95, start: 0.000000, bitrate: 448 kb/s\n",
      "    Stream #5:0(und): Video: h264 (High) (avc1 / 0x31637661), yuv420p, 640x480, 445 kb/s, 20 fps, 20 tbr, 10240 tbn, 40 tbc (default)\n",
      "    Metadata:\n",
      "      handler_name    : VideoHandler\n",
      "Stream mapping:\n",
      "  Stream #0:0 (h264) -> hstack:input0\n",
      "  Stream #1:0 (h264) -> hstack:input1\n",
      "  Stream #2:0 (h264) -> hstack:input2\n",
      "  Stream #3:0 (h264) -> hstack:input0\n",
      "  Stream #4:0 (h264) -> hstack:input1\n",
      "  Stream #5:0 (h264) -> hstack:input2\n",
      "  vstack -> Stream #0:0 (libx264)\n",
      "Press [q] to stop, [?] for help\n",
      "[libx264 @ 0x55b688c44d80] using cpu capabilities: MMX2 SSE2Fast SSSE3 SSE4.2 AVX FMA3 BMI2 AVX2 AVX512\n",
      "[libx264 @ 0x55b688c44d80] profile High, level 4.0\n",
      "[libx264 @ 0x55b688c44d80] 264 - core 155 r2917 0a84d98 - H.264/MPEG-4 AVC codec - Copyleft 2003-2018 - http://www.videolan.org/x264.html - options: cabac=1 ref=3 deblock=1:0:0 analyse=0x3:0x113 me=hex subme=7 psy=1 psy_rd=1.00:0.00 mixed_ref=1 me_range=16 chroma_me=1 trellis=1 8x8dct=1 cqm=0 deadzone=21,11 fast_pskip=1 chroma_qp_offset=-2 threads=12 lookahead_threads=2 sliced_threads=0 nr=0 decimate=1 interlaced=0 bluray_compat=0 constrained_intra=0 bframes=3 b_pyramid=2 b_adapt=1 b_bias=0 direct=1 weightb=1 open_gop=0 weightp=2 keyint=250 keyint_min=20 scenecut=40 intra_refresh=0 rc_lookahead=40 rc=crf mbtree=1 crf=23.0 qcomp=0.60 qpmin=0 qpmax=69 qpstep=4 ip_ratio=1.40 aq=1:1.00\n",
      "Output #0, mp4, to 'all_tests_anim.mp4':\n",
      "  Metadata:\n",
      "    major_brand     : isom\n",
      "    minor_version   : 512\n",
      "    compatible_brands: isomiso2avc1mp41\n",
      "    encoder         : Lavf58.29.100\n",
      "    Stream #0:0: Video: h264 (libx264) (avc1 / 0x31637661), yuv420p, 1920x960, q=-1--1, 20 fps, 10240 tbn, 20 tbc (default)\n",
      "    Metadata:\n",
      "      encoder         : Lavc58.54.100 libx264\n",
      "    Side data:\n",
      "      cpb: bitrate max/min/avg: 0/0/0 buffer size: 0 vbv_delay: -1\n",
      "frame=  199 fps= 49 q=-1.0 Lsize=    1957kB time=00:00:09.80 bitrate=1636.2kbits/s speed=2.41x    \n",
      "video:1954kB audio:0kB subtitle:0kB other streams:0kB global headers:0kB muxing overhead: 0.161906%\n",
      "[libx264 @ 0x55b688c44d80] frame I:1     Avg QP:17.82  size:144444\n",
      "[libx264 @ 0x55b688c44d80] frame P:50    Avg QP:21.32  size: 15276\n",
      "[libx264 @ 0x55b688c44d80] frame B:148   Avg QP:25.37  size:  7380\n",
      "[libx264 @ 0x55b688c44d80] consecutive B-frames:  0.5%  1.0%  0.0% 98.5%\n",
      "[libx264 @ 0x55b688c44d80] mb I  I16..4: 33.7% 35.0% 31.3%\n",
      "[libx264 @ 0x55b688c44d80] mb P  I16..4:  0.4%  2.5%  0.3%  P16..4: 11.4%  4.7%  3.4%  0.0%  0.0%    skip:77.3%\n",
      "[libx264 @ 0x55b688c44d80] mb B  I16..4:  0.2%  1.0%  0.1%  B16..8: 12.8%  3.3%  0.9%  direct: 0.9%  skip:80.8%  L0:53.6% L1:42.2% BI: 4.3%\n",
      "[libx264 @ 0x55b688c44d80] 8x8 transform intra:67.2% inter:75.7%\n",
      "[libx264 @ 0x55b688c44d80] coded y,uvDC,uvAC intra: 28.2% 54.1% 48.8% inter: 5.0% 6.9% 2.3%\n",
      "[libx264 @ 0x55b688c44d80] i16 v,h,dc,p: 43% 51%  6%  0%\n",
      "[libx264 @ 0x55b688c44d80] i8 v,h,dc,ddl,ddr,vr,hd,vl,hu:  9% 14% 42%  3%  9% 10%  9%  2%  3%\n",
      "[libx264 @ 0x55b688c44d80] i4 v,h,dc,ddl,ddr,vr,hd,vl,hu: 17% 26% 22%  3%  8%  6% 12%  2%  4%\n",
      "[libx264 @ 0x55b688c44d80] i8c dc,h,v,p: 64% 23% 10%  2%\n",
      "[libx264 @ 0x55b688c44d80] Weighted P-Frames: Y:0.0% UV:0.0%\n",
      "[libx264 @ 0x55b688c44d80] ref P L0: 37.8%  8.0% 31.2% 23.0%\n",
      "[libx264 @ 0x55b688c44d80] ref B L0: 61.1% 28.1% 10.8%\n",
      "[libx264 @ 0x55b688c44d80] ref B L1: 80.2% 19.8%\n",
      "[libx264 @ 0x55b688c44d80] kb/s:1608.42\n"
     ]
    },
    {
     "data": {
      "text/html": [
       "<video src=\"all_tests_anim.mp4\" controls  >\n",
       "      Your browser does not support the <code>video</code> element.\n",
       "    </video>"
      ],
      "text/plain": [
       "<IPython.core.display.Video object>"
      ]
     },
     "execution_count": 24,
     "metadata": {},
     "output_type": "execute_result"
    }
   ],
   "source": [
    "ORIGINAL_TESTS_NAME = \"all_tests_anim.mp4\"\n",
    "orig_anim_files = run_all_test_anims()\n",
    "combine_test_videos(ORIGINAL_TESTS_NAME, orig_anim_files)\n",
    "Video(ORIGINAL_TESTS_NAME)"
   ]
  },
  {
   "cell_type": "code",
   "execution_count": 25,
   "metadata": {},
   "outputs": [
    {
     "name": "stdout",
     "output_type": "stream",
     "text": [
      "Running for test RealMachine/HI_50ft_135...\n",
      "Running for test RealMachine/HYD_25ft_135_A...\n",
      "Running for test RealMachine/HYD_25ft_135_B...\n",
      "Running for test RealMachine/HYD_50ft_135_A...\n",
      "Running for test RealMachine/HYD_50ft_135_B...\n",
      "Running for test RealMachine/LI_50ft_135...\n",
      "Running for test RealMachine/Ramp_50ft_135...\n",
      "Running for test RealMachine/VO_50ft_135...\n",
      "Combining into ['HI_50ft_135_anim.mp4', 'HYD_25ft_135_A_anim.mp4', 'HYD_25ft_135_B_anim.mp4', 'HYD_50ft_135_A_anim.mp4', 'HYD_50ft_135_B_anim.mp4', 'LI_50ft_135_anim.mp4', 'Ramp_50ft_135_anim.mp4', 'VO_50ft_135_anim.mp4']\n"
     ]
    },
    {
     "name": "stderr",
     "output_type": "stream",
     "text": [
      "ffmpeg version 4.2.7-0ubuntu0.1 Copyright (c) 2000-2022 the FFmpeg developers\n",
      "  built with gcc 9 (Ubuntu 9.4.0-1ubuntu1~20.04.1)\n",
      "  configuration: --prefix=/usr --extra-version=0ubuntu0.1 --toolchain=hardened --libdir=/usr/lib/x86_64-linux-gnu --incdir=/usr/include/x86_64-linux-gnu --arch=amd64 --enable-gpl --disable-stripping --enable-avresample --disable-filter=resample --enable-avisynth --enable-gnutls --enable-ladspa --enable-libaom --enable-libass --enable-libbluray --enable-libbs2b --enable-libcaca --enable-libcdio --enable-libcodec2 --enable-libflite --enable-libfontconfig --enable-libfreetype --enable-libfribidi --enable-libgme --enable-libgsm --enable-libjack --enable-libmp3lame --enable-libmysofa --enable-libopenjpeg --enable-libopenmpt --enable-libopus --enable-libpulse --enable-librsvg --enable-librubberband --enable-libshine --enable-libsnappy --enable-libsoxr --enable-libspeex --enable-libssh --enable-libtheora --enable-libtwolame --enable-libvidstab --enable-libvorbis --enable-libvpx --enable-libwavpack --enable-libwebp --enable-libx265 --enable-libxml2 --enable-libxvid --enable-libzmq --enable-libzvbi --enable-lv2 --enable-omx --enable-openal --enable-opencl --enable-opengl --enable-sdl2 --enable-libdc1394 --enable-libdrm --enable-libiec61883 --enable-nvenc --enable-chromaprint --enable-frei0r --enable-libx264 --enable-shared\n",
      "  libavutil      56. 31.100 / 56. 31.100\n",
      "  libavcodec     58. 54.100 / 58. 54.100\n",
      "  libavformat    58. 29.100 / 58. 29.100\n",
      "  libavdevice    58.  8.100 / 58.  8.100\n",
      "  libavfilter     7. 57.100 /  7. 57.100\n",
      "  libavresample   4.  0.  0 /  4.  0.  0\n",
      "  libswscale      5.  5.100 /  5.  5.100\n",
      "  libswresample   3.  5.100 /  3.  5.100\n",
      "  libpostproc    55.  5.100 / 55.  5.100\n",
      "Input #0, mov,mp4,m4a,3gp,3g2,mj2, from 'HI_50ft_135_anim.mp4':\n",
      "  Metadata:\n",
      "    major_brand     : isom\n",
      "    minor_version   : 512\n",
      "    compatible_brands: isomiso2avc1mp41\n",
      "    encoder         : Lavf58.29.100\n",
      "  Duration: 00:00:09.95, start: 0.000000, bitrate: 489 kb/s\n",
      "    Stream #0:0(und): Video: h264 (High) (avc1 / 0x31637661), yuv420p, 640x480, 486 kb/s, 20 fps, 20 tbr, 10240 tbn, 40 tbc (default)\n",
      "    Metadata:\n",
      "      handler_name    : VideoHandler\n",
      "Input #1, mov,mp4,m4a,3gp,3g2,mj2, from 'HYD_25ft_135_A_anim.mp4':\n",
      "  Metadata:\n",
      "    major_brand     : isom\n",
      "    minor_version   : 512\n",
      "    compatible_brands: isomiso2avc1mp41\n",
      "    encoder         : Lavf58.29.100\n",
      "  Duration: 00:00:09.95, start: 0.000000, bitrate: 461 kb/s\n",
      "    Stream #1:0(und): Video: h264 (High) (avc1 / 0x31637661), yuv420p, 640x480, 459 kb/s, 20 fps, 20 tbr, 10240 tbn, 40 tbc (default)\n",
      "    Metadata:\n",
      "      handler_name    : VideoHandler\n",
      "Input #2, mov,mp4,m4a,3gp,3g2,mj2, from 'HYD_25ft_135_B_anim.mp4':\n",
      "  Metadata:\n",
      "    major_brand     : isom\n",
      "    minor_version   : 512\n",
      "    compatible_brands: isomiso2avc1mp41\n",
      "    encoder         : Lavf58.29.100\n",
      "  Duration: 00:00:09.95, start: 0.000000, bitrate: 455 kb/s\n",
      "    Stream #2:0(und): Video: h264 (High) (avc1 / 0x31637661), yuv420p, 640x480, 452 kb/s, 20 fps, 20 tbr, 10240 tbn, 40 tbc (default)\n",
      "    Metadata:\n",
      "      handler_name    : VideoHandler\n",
      "Input #3, mov,mp4,m4a,3gp,3g2,mj2, from 'HYD_50ft_135_A_anim.mp4':\n",
      "  Metadata:\n",
      "    major_brand     : isom\n",
      "    minor_version   : 512\n",
      "    compatible_brands: isomiso2avc1mp41\n",
      "    encoder         : Lavf58.29.100\n",
      "  Duration: 00:00:09.95, start: 0.000000, bitrate: 470 kb/s\n",
      "    Stream #3:0(und): Video: h264 (High) (avc1 / 0x31637661), yuv420p, 640x480, 467 kb/s, 20 fps, 20 tbr, 10240 tbn, 40 tbc (default)\n",
      "    Metadata:\n",
      "      handler_name    : VideoHandler\n",
      "Input #4, mov,mp4,m4a,3gp,3g2,mj2, from 'HYD_50ft_135_B_anim.mp4':\n",
      "  Metadata:\n",
      "    major_brand     : isom\n",
      "    minor_version   : 512\n",
      "    compatible_brands: isomiso2avc1mp41\n",
      "    encoder         : Lavf58.29.100\n",
      "  Duration: 00:00:09.95, start: 0.000000, bitrate: 484 kb/s\n",
      "    Stream #4:0(und): Video: h264 (High) (avc1 / 0x31637661), yuv420p, 640x480, 481 kb/s, 20 fps, 20 tbr, 10240 tbn, 40 tbc (default)\n",
      "    Metadata:\n",
      "      handler_name    : VideoHandler\n",
      "Input #5, mov,mp4,m4a,3gp,3g2,mj2, from 'LI_50ft_135_anim.mp4':\n",
      "  Metadata:\n",
      "    major_brand     : isom\n",
      "    minor_version   : 512\n",
      "    compatible_brands: isomiso2avc1mp41\n",
      "    encoder         : Lavf58.29.100\n",
      "  Duration: 00:00:09.95, start: 0.000000, bitrate: 492 kb/s\n",
      "    Stream #5:0(und): Video: h264 (High) (avc1 / 0x31637661), yuv420p, 640x480, 490 kb/s, 20 fps, 20 tbr, 10240 tbn, 40 tbc (default)\n",
      "    Metadata:\n",
      "      handler_name    : VideoHandler\n",
      "Input #6, mov,mp4,m4a,3gp,3g2,mj2, from 'Ramp_50ft_135_anim.mp4':\n",
      "  Metadata:\n",
      "    major_brand     : isom\n",
      "    minor_version   : 512\n",
      "    compatible_brands: isomiso2avc1mp41\n",
      "    encoder         : Lavf58.29.100\n",
      "  Duration: 00:00:09.95, start: 0.000000, bitrate: 496 kb/s\n",
      "    Stream #6:0(und): Video: h264 (High) (avc1 / 0x31637661), yuv420p, 640x480, 493 kb/s, 20 fps, 20 tbr, 10240 tbn, 40 tbc (default)\n",
      "    Metadata:\n",
      "      handler_name    : VideoHandler\n",
      "Input #7, mov,mp4,m4a,3gp,3g2,mj2, from 'VO_50ft_135_anim.mp4':\n",
      "  Metadata:\n",
      "    major_brand     : isom\n",
      "    minor_version   : 512\n",
      "    compatible_brands: isomiso2avc1mp41\n",
      "    encoder         : Lavf58.29.100\n",
      "  Duration: 00:00:09.95, start: 0.000000, bitrate: 466 kb/s\n",
      "    Stream #7:0(und): Video: h264 (High) (avc1 / 0x31637661), yuv420p, 640x480, 464 kb/s, 20 fps, 20 tbr, 10240 tbn, 40 tbc (default)\n",
      "    Metadata:\n",
      "      handler_name    : VideoHandler\n",
      "Input #8, mov,mp4,m4a,3gp,3g2,mj2, from 'VO_50ft_135_anim.mp4':\n",
      "  Metadata:\n",
      "    major_brand     : isom\n",
      "    minor_version   : 512\n",
      "    compatible_brands: isomiso2avc1mp41\n",
      "    encoder         : Lavf58.29.100\n",
      "  Duration: 00:00:09.95, start: 0.000000, bitrate: 466 kb/s\n",
      "    Stream #8:0(und): Video: h264 (High) (avc1 / 0x31637661), yuv420p, 640x480, 464 kb/s, 20 fps, 20 tbr, 10240 tbn, 40 tbc (default)\n",
      "    Metadata:\n",
      "      handler_name    : VideoHandler\n",
      "Stream mapping:\n",
      "  Stream #0:0 (h264) -> hstack:input0\n",
      "  Stream #1:0 (h264) -> hstack:input1\n",
      "  Stream #2:0 (h264) -> hstack:input2\n",
      "  Stream #3:0 (h264) -> hstack:input0\n",
      "  Stream #4:0 (h264) -> hstack:input1\n",
      "  Stream #5:0 (h264) -> hstack:input2\n",
      "  Stream #6:0 (h264) -> hstack:input0\n",
      "  Stream #7:0 (h264) -> hstack:input1\n",
      "  Stream #8:0 (h264) -> hstack:input2\n",
      "  vstack -> Stream #0:0 (libx264)\n",
      "Press [q] to stop, [?] for help\n",
      "[libx264 @ 0x55a2e970c480] using cpu capabilities: MMX2 SSE2Fast SSSE3 SSE4.2 AVX FMA3 BMI2 AVX2 AVX512\n",
      "[libx264 @ 0x55a2e970c480] profile High, level 5.0\n",
      "[libx264 @ 0x55a2e970c480] 264 - core 155 r2917 0a84d98 - H.264/MPEG-4 AVC codec - Copyleft 2003-2018 - http://www.videolan.org/x264.html - options: cabac=1 ref=3 deblock=1:0:0 analyse=0x3:0x113 me=hex subme=7 psy=1 psy_rd=1.00:0.00 mixed_ref=1 me_range=16 chroma_me=1 trellis=1 8x8dct=1 cqm=0 deadzone=21,11 fast_pskip=1 chroma_qp_offset=-2 threads=12 lookahead_threads=2 sliced_threads=0 nr=0 decimate=1 interlaced=0 bluray_compat=0 constrained_intra=0 bframes=3 b_pyramid=2 b_adapt=1 b_bias=0 direct=1 weightb=1 open_gop=0 weightp=2 keyint=250 keyint_min=20 scenecut=40 intra_refresh=0 rc_lookahead=40 rc=crf mbtree=1 crf=23.0 qcomp=0.60 qpmin=0 qpmax=69 qpstep=4 ip_ratio=1.40 aq=1:1.00\n",
      "Output #0, mp4, to 'real_machine_tests_anim.mp4':\n",
      "  Metadata:\n",
      "    major_brand     : isom\n",
      "    minor_version   : 512\n",
      "    compatible_brands: isomiso2avc1mp41\n",
      "    encoder         : Lavf58.29.100\n",
      "    Stream #0:0: Video: h264 (libx264) (avc1 / 0x31637661), yuv420p, 1920x1440, q=-1--1, 20 fps, 10240 tbn, 20 tbc (default)\n",
      "    Metadata:\n",
      "      encoder         : Lavc58.54.100 libx264\n",
      "    Side data:\n",
      "      cpb: bitrate max/min/avg: 0/0/0 buffer size: 0 vbv_delay: -1\n",
      "frame=  199 fps= 19 q=-1.0 Lsize=    4567kB time=00:00:09.80 bitrate=3817.9kbits/s speed=0.928x     \n",
      "video:4564kB audio:0kB subtitle:0kB other streams:0kB global headers:0kB muxing overhead: 0.070094%\n",
      "[libx264 @ 0x55a2e970c480] frame I:1     Avg QP:19.27  size:186267\n",
      "[libx264 @ 0x55a2e970c480] frame P:50    Avg QP:23.25  size: 34610\n",
      "[libx264 @ 0x55a2e970c480] frame B:148   Avg QP:26.33  size: 18623\n",
      "[libx264 @ 0x55a2e970c480] consecutive B-frames:  0.5%  1.0%  0.0% 98.5%\n",
      "[libx264 @ 0x55a2e970c480] mb I  I16..4: 28.8% 44.6% 26.6%\n",
      "[libx264 @ 0x55a2e970c480] mb P  I16..4:  0.7%  4.4%  0.6%  P16..4: 16.0%  7.2%  5.0%  0.0%  0.0%    skip:66.2%\n",
      "[libx264 @ 0x55a2e970c480] mb B  I16..4:  0.4%  1.8%  0.2%  B16..8: 19.9%  5.8%  1.6%  direct: 1.7%  skip:68.6%  L0:53.1% L1:41.8% BI: 5.1%\n",
      "[libx264 @ 0x55a2e970c480] 8x8 transform intra:72.2% inter:75.8%\n",
      "[libx264 @ 0x55a2e970c480] coded y,uvDC,uvAC intra: 26.1% 55.4% 50.1% inter: 8.7% 12.1% 4.2%\n",
      "[libx264 @ 0x55a2e970c480] i16 v,h,dc,p: 36% 58%  6%  0%\n",
      "[libx264 @ 0x55a2e970c480] i8 v,h,dc,ddl,ddr,vr,hd,vl,hu:  8% 11% 45%  3%  8% 11%  9%  2%  3%\n",
      "[libx264 @ 0x55a2e970c480] i4 v,h,dc,ddl,ddr,vr,hd,vl,hu: 15% 25% 25%  3%  9%  7% 11%  2%  3%\n",
      "[libx264 @ 0x55a2e970c480] i8c dc,h,v,p: 64% 22% 12%  2%\n",
      "[libx264 @ 0x55a2e970c480] Weighted P-Frames: Y:0.0% UV:0.0%\n",
      "[libx264 @ 0x55a2e970c480] ref P L0: 31.8%  8.9% 32.9% 26.3%\n",
      "[libx264 @ 0x55a2e970c480] ref B L0: 59.3% 29.7% 11.0%\n",
      "[libx264 @ 0x55a2e970c480] ref B L1: 79.2% 20.8%\n",
      "[libx264 @ 0x55a2e970c480] kb/s:3757.22\n"
     ]
    },
    {
     "data": {
      "text/html": [
       "<video src=\"real_machine_tests_anim.mp4\" controls  >\n",
       "      Your browser does not support the <code>video</code> element.\n",
       "    </video>"
      ],
      "text/plain": [
       "<IPython.core.display.Video object>"
      ]
     },
     "execution_count": 25,
     "metadata": {},
     "output_type": "execute_result"
    }
   ],
   "source": [
    "REAL_MACHINE_TESTS_NAME = \"real_machine_tests_anim.mp4\"\n",
    "real_machine_anim_files = run_all_test_anims(\"RealMachine\")\n",
    "combine_test_videos(REAL_MACHINE_TESTS_NAME, real_machine_anim_files)\n",
    "Video(REAL_MACHINE_TESTS_NAME)"
   ]
  },
  {
   "cell_type": "code",
   "execution_count": null,
   "metadata": {},
   "outputs": [],
   "source": [
    "# run_all_test_anims(\"RealMachine\")"
   ]
  }
 ],
 "metadata": {
  "kernelspec": {
   "display_name": "Python 3",
   "language": "python",
   "name": "python3"
  },
  "language_info": {
   "codemirror_mode": {
    "name": "ipython",
    "version": 3
   },
   "file_extension": ".py",
   "mimetype": "text/x-python",
   "name": "python",
   "nbconvert_exporter": "python",
   "pygments_lexer": "ipython3",
   "version": "3.10.13"
  }
 },
 "nbformat": 4,
 "nbformat_minor": 2
}
